<?xml version="1.0" standalone="no"?>
<!DOCTYPE svg PUBLIC "-//W3C//DTD SVG 20010904//EN"
 "http://www.w3.org/TR/2001/REC-SVG-20010904/DTD/svg10.dtd">
<svg version="1.0" xmlns="http://www.w3.org/2000/svg"
 height="40pt" viewBox="0 0 313.000000 239.000000"
 preserveAspectRatio="xMidYMid meet">

<g transform="translate(0.000000,239.000000) scale(0.100000,-0.100000)"
fill="#ffffff" stroke="none">
<path d="M682 2351 c-40 -10 -112 -38 -160 -61 -71 -35 -103 -59 -173 -130
-47 -48 -92 -90 -100 -93 -10 -4 -10 -6 -1 -6 23 -2 12 -19 -21 -31 -31 -11
-31 -12 -9 -21 22 -8 22 -10 7 -39 -22 -43 -105 -266 -105 -283 0 -8 -7 -20
-15 -27 -19 -16 -19 -30 0 -30 19 0 19 -29 0 -36 -8 -4 -15 -14 -15 -23 0 -14
8 -16 38 -14 l37 3 -37 -16 c-25 -10 -38 -23 -38 -35 0 -15 5 -17 30 -12 23 4
30 2 30 -10 0 -9 -9 -19 -20 -22 -26 -8 -26 -25 0 -25 12 0 25 -10 30 -22 19
-45 52 -245 60 -361 4 -65 16 -161 26 -214 17 -90 17 -96 1 -108 -21 -15 -21
-30 -2 -86 15 -41 14 -51 -9 -159 -13 -63 -27 -131 -31 -150 -5 -26 -17 -43
-48 -65 -58 -42 -129 -149 -125 -189 4 -45 35 -44 182 3 69 23 134 41 145 41
26 0 97 65 120 109 l18 34 22 -32 c15 -21 31 -31 49 -31 14 0 38 -12 53 -26
21 -20 33 -24 46 -18 21 10 93 12 93 3 0 -13 65 -19 97 -10 22 6 33 6 35 -1 3
-7 45 -13 106 -15 87 -3 122 2 226 26 68 17 151 39 185 51 l63 21 33 -30 c69
-60 275 -141 361 -141 24 0 44 2 44 5 0 3 -18 23 -41 45 -25 24 -38 43 -33 51
4 7 0 17 -10 24 -13 10 -15 22 -10 53 7 47 3 46 197 62 85 7 124 7 139 -1 20
-11 73 -8 126 7 l23 7 -25 -38 c-31 -45 -31 -48 -9 -70 13 -14 29 -16 72 -12
31 3 64 8 73 12 14 5 21 -2 34 -35 17 -41 18 -42 57 -37 21 3 65 21 97 41 85
53 91 49 69 -40 -10 -38 -9 -48 4 -61 35 -35 159 27 270 135 58 57 67 78 45
101 -11 10 -10 14 3 21 9 5 22 22 28 38 11 25 17 29 49 28 48 -1 54 25 16 65
-22 23 -25 32 -16 41 16 16 15 43 -3 79 -9 16 -17 58 -19 92 -2 51 -10 77 -42
137 -94 177 -267 294 -521 350 -136 30 -212 56 -267 90 -25 16 -65 39 -89 51
-23 12 -55 32 -70 45 -16 13 -61 43 -100 66 -132 77 -198 154 -307 363 -95
180 -145 251 -245 352 -80 80 -105 98 -197 143 -176 85 -363 111 -526 71z
m325 -94 c63 -32 77 -34 70 -7 -7 26 12 21 106 -28 126 -65 257 -221 308 -368
11 -29 19 -61 19 -71 1 -16 2 -16 16 2 10 13 14 32 10 53 -2 17 -2 32 0 32 3
0 35 -62 71 -137 106 -223 159 -285 307 -360 50 -26 141 -76 201 -112 61 -36
159 -86 218 -112 60 -27 115 -53 122 -59 10 -8 16 -7 23 5 8 16 14 16 73 1
127 -32 292 -132 347 -210 67 -95 95 -158 93 -212 -2 -41 3 -60 24 -89 31 -47
32 -57 1 -49 -26 6 -26 5 -41 -94 -5 -33 -13 -45 -31 -52 -20 -8 -24 -16 -24
-50 0 -36 -6 -48 -53 -95 -30 -29 -72 -62 -94 -73 l-40 -21 7 40 c4 22 4 54 1
72 -7 31 -9 32 -55 30 -33 -2 -62 -13 -100 -37 -29 -18 -62 -37 -74 -40 -21
-7 -22 -5 -22 58 0 36 -3 66 -7 66 -5 0 -17 -7 -27 -15 -25 -19 -46 -19 -46
-1 0 14 61 83 70 79 9 -5 40 8 40 16 0 4 -5 12 -11 18 -8 8 -5 17 11 33 12 12
30 41 40 65 12 29 39 60 82 95 35 29 69 59 76 68 7 9 22 17 35 17 17 0 22 6
22 25 0 18 -5 24 -17 22 -9 -1 -19 2 -23 8 -12 19 -30 10 -43 -20 -9 -19 -35
-43 -75 -66 -66 -39 -115 -87 -144 -144 -10 -19 -24 -39 -30 -43 -7 -4 -13
-17 -13 -29 0 -14 -5 -18 -15 -14 -9 3 -34 -4 -57 -16 -23 -12 -57 -21 -76
-21 -19 1 -48 -5 -66 -12 -17 -7 -58 -16 -91 -20 -33 -4 -73 -15 -88 -24 -26
-15 -29 -15 -38 2 -8 13 -15 15 -28 8 -9 -5 -36 -7 -59 -4 -42 6 -42 6 -42 47
0 77 -21 159 -53 208 -18 26 -35 48 -39 48 -5 0 -8 9 -8 19 0 11 -5 23 -10 26
-6 4 -9 12 -8 18 3 14 -23 57 -34 57 -12 0 -10 -44 3 -77 6 -15 14 -48 18 -73
5 -38 10 -45 27 -42 26 3 34 -28 34 -124 0 -68 -27 -174 -45 -174 -19 0 -12
-105 9 -128 l18 -21 -58 16 c-32 8 -71 21 -86 29 -76 40 -144 129 -176 231
-19 61 -19 63 -1 68 25 8 24 17 -7 46 -35 31 -72 112 -80 172 -5 36 -11 47
-24 47 -12 0 -19 -10 -23 -32 -6 -44 20 -220 38 -255 8 -15 15 -52 15 -82 0
-47 -2 -52 -15 -41 -21 17 -29 7 -15 -19 14 -26 -3 -61 -29 -61 -9 0 -28 -11
-41 -25 -26 -28 -73 -35 -64 -10 8 20 1 19 -37 -4 -17 -10 -39 -17 -49 -14
-10 3 -21 0 -24 -6 -4 -6 -14 -11 -23 -11 -9 0 -25 -8 -35 -17 -15 -14 -19
-14 -16 -3 3 16 -12 18 -49 6 -17 -6 -23 -3 -23 8 0 20 -24 21 -40 1 -16 -19
-34 -19 -51 1 -10 12 -24 14 -65 9 -39 -5 -61 -2 -83 9 -16 9 -43 16 -58 16
-26 0 -43 8 -108 54 -22 16 -31 17 -45 8 -17 -10 -20 -7 -31 23 -7 19 -18 35
-25 35 -16 0 -35 -25 -26 -35 4 -5 1 -5 -6 -1 -43 25 -121 312 -136 507 -8 98
3 71 55 -130 38 -144 91 -277 125 -311 14 -13 17 -12 34 8 32 39 49 150 30
194 -6 13 -16 77 -23 143 l-12 120 47 -25 c42 -22 48 -29 48 -57 0 -31 1 -31
40 -26 32 4 39 3 36 -8 -2 -8 -7 -29 -10 -47 l-6 -33 54 30 c68 40 78 39 74
-1 -5 -48 24 -48 67 -1 33 37 35 37 49 18 15 -20 15 -20 54 2 l39 22 11 -24
c6 -14 19 -52 27 -86 28 -108 115 -259 150 -259 32 0 34 26 8 90 l-26 65 6
225 c6 211 30 424 52 460 4 7 2 16 -6 21 -21 13 -39 11 -39 -6 0 -22 -37 -55
-61 -55 -11 0 -27 -7 -35 -15 -20 -20 -34 -19 -34 3 -1 14 -4 13 -21 -7 -17
-21 -25 -23 -68 -18 -103 12 -249 116 -292 208 -26 55 -38 82 -49 112 -5 15
-14 27 -20 27 -10 0 -20 -33 -19 -65 1 -45 -13 -99 -41 -154 -25 -51 -34 -60
-73 -73 -41 -13 -45 -13 -56 4 -6 10 -20 18 -30 18 -25 0 -104 119 -147 220
-77 183 -70 322 20 415 40 42 46 45 95 45 88 0 164 49 164 106 0 48 -62 69
-128 44 l-26 -10 18 31 c41 71 190 199 232 199 8 0 22 7 31 15 27 24 90 34
210 32 104 -2 120 -5 167 -30z m-311 -1108 c22 10 31 7 68 -18 36 -25 69 -38
164 -67 16 -4 16 -76 0 -92 -9 -9 -9 -12 0 -12 18 0 14 -31 -5 -46 -24 -18
-33 -17 -33 1 0 8 7 15 16 15 8 0 12 5 9 11 -4 6 -22 -6 -44 -30 l-38 -41 -85
0 c-84 0 -87 1 -120 34 -19 19 -32 39 -30 45 2 6 -8 11 -25 11 -34 0 -46 8
-62 37 -21 41 -14 68 22 78 24 8 32 16 32 34 0 20 8 27 40 36 27 8 44 8 53 2
8 -7 21 -6 38 2z m-286 -89 c18 0 20 -7 21 -62 1 -35 1 -67 0 -72 -1 -5 3 -12
8 -16 13 -8 41 -240 41 -342 0 -121 -19 -145 -40 -50 -7 31 -30 116 -52 187
-39 130 -93 384 -83 393 3 3 5 -1 5 -9 0 -8 9 -27 20 -44 l20 -30 -6 50 -7 50
26 -27 c14 -16 35 -28 47 -28z m729 -47 c-7 -44 -13 -177 -13 -305 -1 -245 -7
-263 -45 -145 -59 184 -98 391 -89 477 3 33 4 32 15 -20 8 -41 11 -47 12 -24
1 29 16 42 48 42 3 0 9 4 12 9 9 13 65 52 69 48 2 -2 -2 -39 -9 -82z m-779
-765 c0 -27 -2 -48 -4 -48 -31 0 -158 -36 -197 -56 -28 -14 -54 -22 -57 -19
-4 4 25 37 64 74 l72 66 16 85 c9 47 19 96 22 110 9 39 84 -151 84 -212z
m2019 38 c-2 -2 -15 -9 -29 -15 -24 -11 -24 -11 -6 3 16 13 49 24 35 12z"/>
<path d="M1040 1888 c-40 -21 -40 -75 2 -115 37 -35 122 -83 148 -83 31 0 70
39 70 70 0 72 -155 162 -220 128z"/>
<path d="M590 1785 c-6 -8 -43 -34 -81 -57 -38 -23 -71 -48 -73 -55 -6 -16 23
-46 38 -40 42 18 41 19 38 -28 -7 -77 47 -125 123 -111 70 13 128 89 93 124
-6 6 18 2 55 -10 54 -18 68 -19 81 -9 29 24 17 40 -51 71 -87 40 -143 78 -154
107 -10 27 -50 31 -69 8z m79 -113 c39 -35 43 -40 32 -61 -14 -26 -68 -61 -94
-61 -22 0 -57 72 -50 101 5 18 48 59 62 59 3 0 26 -18 50 -38z"/>
</g>
</svg>
